<svg focusable="false" fill="none" viewBox="0 0 20 20" xmlns="http://www.w3.org/2000/svg" xmlns:xlink="http://www.w3.org/1999/xlink"><clipPath id="shoppingCart"><path d="m0 0h20v20h-20z"/></clipPath><g clip-path="url(#shoppingCart)" clip-rule="evenodd" fill="currentColor" fill-rule="evenodd"><path d="m5 17.5c0-.9204.74619-1.6666 1.66667-1.6666.92047 0 1.66666.7462 1.66666 1.6666 0 .9205-.74619 1.6667-1.66666 1.6667-.92048 0-1.66667-.7462-1.66667-1.6667z"/><path d="m14.1667 17.5c0-.9204.7462-1.6666 1.6667-1.6666s1.6667.7462 1.6667 1.6666c0 .9205-.7462 1.6667-1.6667 1.6667s-1.6667-.7462-1.6667-1.6667z"/><path d="m.875 1.70833c0-.46023.3731-.83333.83333-.83333h1.66667c.39298 0 .73256.27455.81485.65882l.75128 3.50785h13.46717c.2528 0 .4919.1147.65.31184.1582.19715.2183.45541.1635.70215l-1.3746 6.19014c-.0001.0003 0-.0002 0 0-.1224.5554-.4307 1.0532-.8737 1.4098-.4432.3568-.9949.5518-1.5638.5527h-8.14301c-.57781.0105-1.14154-.1795-1.59518-.5378-.4563-.3605-.77267-.8688-.89464-1.4374l-1.31627-6.14586c-.00638-.0243-.01169-.04904-.01588-.07415l-.74348-3.47142h-.99291c-.46023 0-.83333-.3731-.83333-.83334zm4.42308 5 1.10838 5.17517c.00002.0001-.00002-.0001 0 0 .0407.1895.14619.359.29822.4791.1521.1202.34133.1836.53512.1793l.01853-.0002h8.14867c.1895-.0004.3736-.0654.5212-.1843.1478-.1189.2505-.2847.2913-.4699l1.1501-5.17917z"/></g></svg>
