<svg focusable="false" fill="none"  viewBox="0 0 20 20"  xmlns="http://www.w3.org/2000/svg"><g clip-rule="evenodd" fill="currentColor" fill-rule="evenodd"><path d="m9.756 5.24408c.3254.32543.3254.85307 0 1.17851l-3.57741 3.57741 3.57741 3.5774c.3254.3254.3254.8531 0 1.1785-.32543.3255-.85307.3255-1.17851 0l-4.16666-4.1666c-.32544-.3255-.32544-.85312 0-1.17856l4.16666-4.16666c.32544-.32544.85308-.32544 1.17851 0z"/><path d="m15.5893 5.24408c.3254.32543.3254.85307 0 1.17851l-3.5775 3.57741 3.5775 3.5774c.3254.3254.3254.8531 0 1.1785-.3255.3255-.8531.3255-1.1786 0l-4.1666-4.1666c-.32546-.3255-.32546-.85312 0-1.17856l4.1666-4.16666c.3255-.32544.8531-.32544 1.1786 0z"/></g></svg>
