<svg focusable="false" fill="none"  viewBox="0 0 20 20"  xmlns="http://www.w3.org/2000/svg"><g clip-rule="evenodd" fill="currentColor" fill-rule="evenodd"><path d="m10.2441 5.24408c.3254-.32544.8531-.32544 1.1785 0l4.1667 4.16666c.3254.32544.3254.85306 0 1.17856l-4.1667 4.1666c-.3254.3255-.8531.3255-1.1785 0-.32546-.3254-.32546-.8531 0-1.1785l3.5774-3.5774-3.5774-3.57741c-.32546-.32544-.32546-.85308 0-1.17851z"/><path d="m4.41083 5.24408c.32543-.32544.85307-.32544 1.17851 0l4.16666 4.16666c.3254.32544.3254.85306 0 1.17856l-4.16666 4.1666c-.32544.3255-.85308.3255-1.17851 0-.32544-.3254-.32544-.8531 0-1.1785l3.57741-3.5774-3.57741-3.57741c-.32544-.32544-.32544-.85308 0-1.17851z"/></g></svg>
