<svg focusable="false" fill="currentColor" viewBox="0 0 20 20" xmlns="http://www.w3.org/2000/svg"><path clip-rule="evenodd" d="m4.12567 2.06742c.64828-.26919 1.34331-.40775 2.04526-.40775.70194 0 1.39697.13856 2.04525.40775.64828.26918 1.23704.66369 1.73252 1.1609l.00278.00278.04862.04926.0486-.04925.0028-.00279c.4955-.49721 1.0842-.89172 1.7325-1.1609.6483-.26919 1.3433-.40775 2.0453-.40775.7019 0 1.3969.13856 2.0452.40775.6481.26909 1.2366.66342 1.732 1.16039 2.1209 2.1214 2.168 5.62903-.345 8.18919l-.0055.0055-6.6667 6.6666c-.1562.1563-.3682.2441-.5892.2441-.22102 0-.43298-.0878-.58926-.2441l-6.67214-6.6721c-2.513077-2.56014-2.465893-6.06779-.34504-8.1892.49538-.49696 1.08396-.89129 1.73201-1.16038z" fill="currentColor" fill-rule="evenodd"/></svg>