<svg focusable="false" fill="none" viewBox="0 0 20 20" xmlns="http://www.w3.org/2000/svg"><path clip-rule="evenodd" d="m4.12567 2.06742c.64828-.26919 1.34331-.40775 2.04526-.40775.70194 0 1.39697.13856 2.04525.40775.64828.26918 1.23704.66369 1.73252 1.1609l.00278.00278.04862.04926.0486-.04925.0028-.00279c.4955-.49721 1.0842-.89172 1.7325-1.1609.6483-.26919 1.3433-.40775 2.0453-.40775.7019 0 1.3969.13856 2.0452.40775.6481.26909 1.2366.66342 1.732 1.16039 2.1209 2.1214 2.168 5.62903-.345 8.18919l-.0055.0055-6.6667 6.6666c-.1562.1563-.3682.2441-.5892.2441-.22102 0-.43298-.0878-.58926-.2441l-6.67214-6.6721c-2.513077-2.56014-2.465893-6.06779-.34504-8.1892.49538-.49696 1.08396-.89129 1.73201-1.16038zm2.04526 1.25891c-.48259 0-.96043.09527-1.40612.28033-.44569.18507-.85046.45629-1.19111.79812l-.00102.00103c-1.41134 1.41134-1.58112 3.86845.35284 5.84099l6.07458 6.0746 6.0746-6.0746c1.9339-1.97253 1.7642-4.42965.3528-5.84099l-.001-.00103c-.3407-.34183-.7454-.61305-1.1911-.79812-.4457-.18506-.9236-.28033-1.4061-.28033-.4826 0-.9605.09527-1.4062.28033-.4451.18482-.8494.45558-1.1897.79677-.0005.00045-.0009.0009-.0014.00135l-.6389.64721c-.1565.15861-.3701.24789-.593.24789-.22288 0-.43647-.08928-.59305-.24789l-.6389-.64721c-.00045-.00045-.0009-.0009-.00135-.00135-.34036-.34119-.74466-.61195-1.18976-.79677-.44569-.18506-.92353-.28033-1.40611-.28033z" fill="currentColor" fill-rule="evenodd"/></svg>
