<svg focusable="false" fill="none"  viewBox="0 0 20 20"  xmlns="http://www.w3.org/2000/svg"><g clip-rule="evenodd" fill="currentColor" fill-rule="evenodd"><path d="m9.48846 1.00887c.30093-.234051.72234-.234051 1.02324 0l7.5 5.83334c.203.15788.3217.40063.3217.65779v9.1667c0 .663-.2634 1.2989-.7322 1.7677-.4689.4689-1.1047.7323-1.7678.7323h-11.66665c-.66304 0-1.29893-.2634-1.76777-.7323-.46884-.4688-.73223-1.1047-.73223-1.7677v-9.1667c0-.25716.11873-.49991.32171-.65779zm-6.15505 6.8987v8.75913c0 .221.0878.4329.24408.5892s.36824.2441.58926.2441h11.66665c.221 0 .433-.0878.5893-.2441s.244-.3682.244-.5892v-8.75913l-6.6666-5.18519z"/><path d="m6.66675 10c0-.46024.37309-.83333.83333-.83333h5.00002c.4602 0 .8333.37309.8333.83333v8.3333c0 .4603-.3731.8334-.8333.8334-.4603 0-.8334-.3731-.8334-.8334v-7.5h-3.33329v7.5c0 .4603-.37309.8334-.83333.8334s-.83333-.3731-.83333-.8334z"/></g></svg>
