<svg viewBox="0 0 270 48" role="img" aria-labelledby="title" xmlns="http://www.w3.org/2000/svg">
    <title>Nuxtware Logo</title>
    <path d="M37.1955 28.7144L21.8789 13.4503L9.7938 9.62829L9.73737 9.61029L22.268 21.8894H22.271L37.1955 28.7144Z" fill="#7F0000"/>
    <path d="M8.0325 9.64641C8.95618 9.28641 10.0074 9.51146 10.7084 10.2195L37.4271 37.1927C38.128 37.9007 38.3506 38.9598 37.9942 39.8927L35.5144 46.3817C34.861 48.0887 32.6839 48.5536 31.4039 47.2606L0.734965 16.3004C-0.547976 15.0074 -0.0846675 12.8084 1.60517 12.1484L8.0325 9.64641Z" fill="#ED3500"/>
    <path d="M26.8626 4.45321C27.7862 4.09322 28.8348 4.31526 29.5387 5.02626L42.5593 18.1724C43.2602 18.8804 43.4831 19.9395 43.1267 20.8725L43.1206 20.8754L40.8276 26.8784L40.6437 27.3644C40.121 28.7384 38.6062 29.3084 37.3677 28.8014C37.3172 28.7804 37.2667 28.7596 37.2162 28.7326C36.9697 28.6126 36.741 28.4504 36.5331 28.2404L19.565 11.1075C18.285 9.81144 18.7426 7.61547 20.4355 6.95547L26.8626 4.45321Z" fill="#ED3500"/>
    <path d="M40.59 0.346345C42.473 -0.385649 44.6055 0.0703581 46.0311 1.51032C47.4567 2.95031 47.9082 5.10423 47.1836 7.00323H47.1807L45.3094 11.9023C44.656 13.6093 42.479 14.0745 41.1989 12.7815L34.867 6.38828C33.5839 5.09527 34.0472 2.8963 35.7372 2.2363L40.59 0.346345Z" fill="#ED3500"/>
    <path fill-rule="evenodd" clip-rule="evenodd" d="M212.929 12.9912C214.378 12.9912 215.789 13.1683 217.158 13.5162C218.528 13.8642 219.757 14.4073 220.844 15.1393L220.839 15.1422C221.926 15.8742 222.79 16.8314 223.426 18.0104C224.064 19.1924 224.382 20.6025 224.382 22.2465V40.6304H217.518V36.8475H217.277C216.841 37.6965 216.261 38.4406 215.537 39.0826C214.812 39.7276 213.938 40.2346 212.914 40.6096C211.892 40.9846 210.71 41.1706 209.373 41.1706C207.665 41.1706 206.13 40.8674 204.769 40.2554C203.409 39.6464 202.337 38.7345 201.556 37.5226C200.771 36.3075 200.382 34.7984 200.382 32.9923C200.382 31.4774 200.661 30.2085 201.217 29.1826C201.772 28.1565 202.53 27.3343 203.489 26.7163C204.449 26.0983 205.536 25.6274 206.754 25.3004C207.971 24.9734 209.248 24.7483 210.585 24.6163C212.15 24.4513 213.41 24.3014 214.369 24.1634C215.329 24.0254 216.03 23.8033 216.472 23.5033C216.915 23.2003 217.138 22.7564 217.138 22.1715V22.0484C217.138 21.2685 216.974 20.6084 216.654 20.0715C216.333 19.5344 215.851 19.1233 215.216 18.8383C214.58 18.5564 213.844 18.4124 212.908 18.4124C211.972 18.4124 211.158 18.5534 210.466 18.8383C209.771 19.1233 209.207 19.5014 208.773 19.9724C208.337 20.4434 208.013 20.9745 207.805 21.5595L201.157 20.4614C201.624 18.8654 202.399 17.5154 203.477 16.4084C204.555 15.3014 205.898 14.4554 207.502 13.8704C209.106 13.2854 210.915 12.9912 212.929 12.9912ZM217.185 27.9105C216.974 28.0725 216.65 28.2195 216.217 28.3485C215.783 28.4805 215.299 28.5914 214.767 28.6904C214.236 28.7894 213.713 28.8795 213.196 28.9605C212.679 29.0415 212.219 29.1073 211.818 29.1553C210.93 29.2873 210.148 29.4973 209.471 29.7913C208.794 30.0823 208.271 30.4695 207.9 30.9495C207.529 31.4294 207.344 32.0414 207.344 32.7914C207.344 33.4904 207.523 34.0815 207.876 34.5615C208.23 35.0415 208.714 35.4045 209.326 35.6475C209.937 35.8905 210.639 36.0134 211.429 36.0135C212.572 36.0135 213.576 35.7854 214.438 35.3294C215.302 34.8764 215.973 34.2554 216.458 33.4755C216.942 32.6925 217.182 31.8224 217.182 30.8624L217.185 30.8654V27.9105Z" fill="#00091D"/>
    <path fill-rule="evenodd" clip-rule="evenodd" d="M257.308 12.9883C259.078 12.9883 260.733 13.2732 262.262 13.8432C263.792 14.4132 265.141 15.2714 266.299 16.4205C267.46 17.5664 268.366 19.0033 269.02 20.7283C269.673 22.4563 270 24.4905 270 26.8335L269.997 26.8303V28.8793H251.525C251.569 30.2623 251.819 31.4503 252.291 32.4193C252.817 33.4933 253.551 34.3005 254.492 34.8375C255.434 35.3745 256.536 35.6443 257.792 35.6443C258.645 35.6443 259.42 35.5214 260.112 35.2784C260.804 35.0354 261.395 34.6724 261.888 34.1924C262.378 33.7124 262.752 33.1214 263.011 32.4225L269.587 33.6673C269.154 35.1644 268.393 36.4786 267.315 37.6096C266.237 38.7405 264.885 39.6166 263.266 40.2346C261.648 40.8526 259.782 41.1615 257.67 41.1615C254.914 41.1615 252.538 40.5914 250.539 39.4515C248.54 38.3145 247.007 36.6943 245.935 34.5943C244.863 32.4943 244.328 29.9414 244.328 27.1244C244.328 24.3074 244.86 21.8413 245.923 19.7263C246.986 17.6114 248.492 15.9584 250.444 14.7704C252.392 13.5824 254.682 12.9883 257.308 12.9883ZM257.379 18.5085C256.123 18.5085 255.057 18.8024 254.177 19.3874H254.174C253.298 19.9753 252.633 20.7673 252.181 21.7692C251.84 22.5282 251.629 23.3715 251.546 24.2955H262.996C262.907 23.3805 262.717 22.5523 262.42 21.8173C261.992 20.7673 261.356 19.9544 260.51 19.3754C259.663 18.7964 258.636 18.5085 257.379 18.5085Z" fill="#00091D"/>
    <path d="M153.172 13.3334H158.225V18.9254H153.172V32.6475C153.172 33.5115 153.359 34.1504 153.74 34.5644C154.12 34.9784 154.749 35.1855 155.637 35.1855C155.911 35.1855 156.3 35.1465 156.799 35.0745L156.802 35.0716C157.301 34.9996 157.678 34.9304 157.937 34.8644L158.976 40.3576C158.168 40.6036 157.366 40.7716 156.57 40.8706C155.771 40.9696 155.011 41.0174 154.286 41.0174C151.577 41.0174 149.507 40.3514 148.072 39.0164C146.638 37.6844 145.922 35.7703 145.922 33.2803V18.9254H142.2V13.3334H145.922V6.83826H153.172V13.3334Z" fill="#00091D"/>
    <path d="M95.8811 29.4193C95.8811 31.1143 96.315 32.4404 97.1853 33.4005C98.0555 34.3604 99.2465 34.8404 100.761 34.8404C101.792 34.8404 102.704 34.6153 103.494 34.1683C104.284 33.7213 104.902 33.0704 105.345 32.2154C105.787 31.3634 106.01 30.3343 106.01 29.1284H106.013V13.3334H113.29V40.6216H106.426L106.346 34.9216C105.651 36.6825 104.7 38.0806 103.488 39.1096C102.03 40.3486 100.179 40.9664 97.9395 40.9664C96.0683 40.9664 94.4346 40.5556 93.0327 39.7336C91.6307 38.9116 90.5465 37.7324 89.7801 36.1933C89.0138 34.6544 88.6306 32.8214 88.6306 30.6884V13.3302H95.8811V29.4193Z" fill="#00091D"/>
    <path d="M185.611 23.4163C186.015 25.2583 186.466 27.2384 186.965 29.3624C187.304 30.7994 187.625 32.3384 187.934 33.9644C188.207 32.3504 188.492 30.8204 188.792 29.3865C189.235 27.2624 189.665 25.2733 190.084 23.4163V23.4192L192.431 13.3363H200.141L192.116 40.6304H184.743L181.747 30.1095C181.455 29.0505 181.167 27.8833 180.876 26.6053C180.585 25.3273 180.303 24.0254 180.03 22.6994C179.964 22.3844 179.896 22.0723 179.831 21.7663C179.762 22.0723 179.697 22.3814 179.629 22.6994C179.347 24.0254 179.061 25.3303 178.77 26.6173C178.479 27.9043 178.191 29.0685 177.9 30.1095L174.903 40.6304H167.531L159.553 13.3363H167.168L169.512 23.4192C169.913 25.2252 170.35 27.1904 170.816 29.3144C171.131 30.7484 171.428 32.2965 171.707 33.9345C172.007 32.3386 172.322 30.8174 172.654 29.3865C173.153 27.2444 173.623 25.2553 174.057 23.4163L176.522 13.3334H183.193L185.611 23.4163Z" fill="#00091D"/>
    <path d="M75.19 12.9912C77.0583 12.9912 78.6921 13.4023 80.0852 14.2243C81.4812 15.0463 82.5595 16.2253 83.3258 17.7643C84.0892 19.3033 84.4722 21.1363 84.4722 23.2692V40.6275H77.2216V24.5384C77.2216 22.8434 76.791 21.5175 75.9297 20.5575C75.0653 19.5975 73.8683 19.1173 72.3386 19.1172C71.3228 19.1172 70.4138 19.3423 69.6178 19.7893C68.8188 20.2363 68.1981 20.8843 67.7556 21.7303C67.313 22.5793 67.0901 23.6115 67.0901 24.8325V40.6275H59.8396V13.3334H66.6803L66.7812 18.9913C67.4733 17.2663 68.4059 15.8864 69.594 14.8604C71.0376 13.6154 72.8999 12.9912 75.19 12.9912Z" fill="#00091D"/>
    <path d="M126.149 17.6292C126.921 19.0452 127.619 20.4433 128.24 21.8173C128.412 22.2072 128.59 22.5853 128.768 22.9663C128.943 22.5883 129.122 22.2133 129.291 21.8293C129.903 20.4463 130.613 19.0452 131.418 17.6292L133.954 13.3334H141.64L133.301 26.7134L142.028 40.6275H134.246L131.249 35.5005C130.458 34.0995 129.746 32.7075 129.11 31.3245C128.938 30.9495 128.762 30.5924 128.59 30.2264C128.424 30.5924 128.257 30.9495 128.094 31.3245C127.488 32.7105 126.799 34.0995 126.027 35.5005L123.03 40.6275H115.343L124.034 26.6205L115.874 13.3334H123.707L126.149 17.6292Z" fill="#00091D"/>
    <path d="M242.367 12.9672C242.739 12.9672 243.143 12.9883 243.576 13.0273C244.013 13.0693 244.39 13.1294 244.714 13.2104L244.711 13.2133V19.7562C244.387 19.6422 243.921 19.5524 243.309 19.4864C242.697 19.4204 242.115 19.3874 241.568 19.3874C240.472 19.3874 239.48 19.6275 238.595 20.1075C237.707 20.5875 237.018 21.2535 236.528 22.1085C236.038 22.9635 235.791 23.9595 235.791 25.0994V40.6275H228.541V13.3334H235.55V18.0942H235.842C236.341 16.4023 237.175 15.1244 238.343 14.2604C239.51 13.3994 240.852 12.9672 242.367 12.9672Z" fill="#00091D"/>
    <path d="M141.642 13.3334H141.64L141.642 13.3302V13.3334Z" fill="#00091D"/>
</svg>


