<svg viewBox="0 0 270 48" role="img" aria-labelledby="title" xmlns="http://www.w3.org/2000/svg">
    <title>Nuxtware Logo</title>
    <path d="M35.4033 27.0831L20.8269 12.6957L9.32355 9.09139L9.26953 9.07338L21.199 20.6517L35.4033 27.0861" fill="#7F0000"/>
    <path d="M7.64433 9.10942C8.52366 8.77029 9.52317 8.98031 10.1894 9.64956L37.6016 37.0618C38.2679 37.7281 38.4809 38.7276 38.1418 39.6069V39.6037L35.7828 45.7199C35.1616 47.3285 33.0908 47.7699 31.8693 46.5485L0.699835 15.3816C-0.521598 14.1601 -0.0805189 12.0893 1.52808 11.4681L7.64433 9.10942Z" fill="#ED3500"/>
    <path d="M25.5462 4.19947C26.4254 3.86038 27.4247 4.07044 28.091 4.73961L40.4858 17.1342C41.1551 17.8035 41.3651 18.8 41.026 19.6793L41.023 19.6731L38.6641 25.7926C38.1659 27.0891 36.7254 27.6261 35.546 27.149C35.498 27.131 35.4498 27.107 35.4018 27.086C35.1677 26.9749 34.9486 26.8219 34.7506 26.6238L18.5984 10.4719C17.38 9.25052 17.8152 7.17976 19.4267 6.55846L25.5462 4.19947Z" fill="#ED3500"/>
    <path d="M38.6131 0.324968C40.4047 -0.365272 42.4334 0.0639964 43.7929 1.4205C45.1494 2.777 45.5817 4.80871 44.8885 6.60037L44.8914 6.6033L43.1086 11.2222C42.4873 12.8307 40.4168 13.2718 39.1954 12.0505L33.1659 6.02125C31.9445 4.79979 32.3858 2.729 33.9944 2.10777L38.6131 0.324968Z" fill="#ED3500"/>
    <path fill-rule="evenodd" clip-rule="evenodd" d="M212.339 12.6115C213.804 12.6116 215.229 12.7886 216.613 13.1367C217.996 13.4849 219.239 14.0282 220.337 14.7604L220.331 14.7636C221.43 15.4959 222.303 16.4532 222.945 17.6326C223.59 18.815 223.911 20.2256 223.911 21.8702V40.2612H216.976V36.4767H216.733C216.292 37.326 215.707 38.0703 214.974 38.7126C214.242 39.3578 213.36 39.8649 212.324 40.2401C211.292 40.6152 210.097 40.8013 208.747 40.8013C207.021 40.8013 205.47 40.4982 204.095 39.886C202.721 39.2768 201.637 38.3644 200.848 37.1519C200.056 35.9365 199.662 34.4269 199.662 32.6203C199.662 31.1048 199.944 29.8352 200.506 28.8088C201.067 27.7825 201.832 26.9599 202.802 26.3417C203.771 25.7235 204.869 25.2524 206.1 24.9253C207.33 24.5981 208.621 24.373 209.971 24.2409C211.553 24.0759 212.825 23.9259 213.795 23.7878C214.764 23.6498 215.472 23.4276 215.919 23.1275C216.367 22.8244 216.592 22.3804 216.592 21.7952V21.6721C216.592 20.8918 216.427 20.2316 216.103 19.6944C215.779 19.1572 215.292 18.7459 214.65 18.4608C214.008 18.1787 213.263 18.0347 212.318 18.0347C211.373 18.0347 210.551 18.1757 209.851 18.4608C209.149 18.7459 208.579 19.1241 208.141 19.5953C207.699 20.0665 207.372 20.5977 207.162 21.1829L200.446 20.0845C200.917 18.4879 201.7 17.1374 202.79 16.03C203.879 14.9226 205.235 14.0763 206.856 13.4911C208.477 12.9059 210.304 12.6115 212.339 12.6115ZM216.64 27.5334C216.427 27.6954 216.099 27.8425 215.661 27.9715C215.223 28.1035 214.734 28.2145 214.197 28.3135C213.66 28.4126 213.131 28.5027 212.609 28.5838C212.087 28.6648 211.622 28.7306 211.217 28.7787C210.319 28.9107 209.53 29.1208 208.846 29.4149C208.161 29.706 207.633 30.0933 207.258 30.5735C206.883 31.0536 206.697 31.6658 206.697 32.4161C206.697 33.1153 206.877 33.7067 207.234 34.1868C207.591 34.667 208.081 35.0302 208.699 35.2733C209.317 35.5163 210.025 35.6393 210.824 35.6393C211.979 35.6393 212.994 35.4111 213.864 34.955C214.737 34.5018 215.415 33.8807 215.905 33.1004C216.394 32.3171 216.637 31.4468 216.637 30.4864L216.64 30.4894V27.5334Z" fill="#00091D"/>
    <path fill-rule="evenodd" clip-rule="evenodd" d="M257.176 12.6086C258.965 12.6086 260.636 12.8939 262.182 13.4641C263.727 14.0343 265.09 14.8926 266.26 16.042C267.434 17.1884 268.349 18.6259 269.009 20.3515C269.67 22.0801 270 24.1151 270 26.4589L269.997 26.456V28.5058H251.333C251.378 29.8893 251.63 31.0777 252.107 32.0471C252.638 33.1214 253.38 33.9287 254.331 34.4658C255.282 35.003 256.396 35.2733 257.665 35.2733C258.526 35.2733 259.31 35.15 260.009 34.9069C260.708 34.6639 261.305 34.3009 261.804 33.8208C262.299 33.3406 262.677 32.7493 262.938 32.05L269.583 33.2956C269.145 34.7931 268.376 36.1076 267.287 37.239C266.197 38.3704 264.832 39.2467 263.196 39.8649C261.561 40.4832 259.676 40.7922 257.542 40.7922C254.757 40.7922 252.356 40.222 250.336 39.0815C248.317 37.9441 246.768 36.3236 245.685 34.2229C244.601 32.1221 244.061 29.568 244.061 26.75C244.061 23.9319 244.598 21.4649 245.673 19.3491C246.747 17.2334 248.269 15.5799 250.24 14.3914C252.209 13.203 254.523 12.6086 257.176 12.6086ZM257.251 18.1279C255.981 18.1279 254.904 18.4219 254.016 19.0071H254.013C253.127 19.5953 252.455 20.3875 251.999 21.3898C251.654 22.1491 251.441 22.9927 251.357 23.9171H262.926C262.836 23.0017 262.644 22.1732 262.344 21.4379C261.912 20.3875 261.269 19.5743 260.414 18.9951C259.559 18.4159 258.52 18.1279 257.251 18.1279Z" fill="#00091D"/>
    <path d="M151.959 12.9509H157.064V18.5449H151.959V32.2722C151.959 33.1364 152.149 33.7756 152.533 34.1898C152.917 34.6039 153.553 34.8111 154.45 34.8111C154.726 34.8111 155.12 34.772 155.624 34.7L155.627 34.6971C156.131 34.6251 156.512 34.5559 156.773 34.4899L157.824 39.9851C157.007 40.2312 156.197 40.3992 155.393 40.4983C154.586 40.5973 153.817 40.6451 153.085 40.6451C150.348 40.6451 148.256 39.9789 146.807 38.6434C145.357 37.3109 144.634 35.3961 144.634 32.9052V18.5449H140.873V12.9509H144.634V6.45338H151.959V12.9509Z" fill="#00091D"/>
    <path d="M94.0767 29.0459C94.0767 30.7415 94.5151 32.0679 95.3944 33.0283C96.2737 33.9886 97.4772 34.4688 99.0078 34.4688C100.049 34.4688 100.97 34.2438 101.769 33.7967C102.567 33.3496 103.191 32.6981 103.638 31.8428C104.086 30.9905 104.311 29.961 104.311 28.7546L104.314 28.7517V12.9509H111.666V40.2521H104.731L104.65 34.55C103.948 36.3116 102.987 37.7101 101.763 38.7395C100.289 39.979 98.4195 40.597 96.1567 40.5971C94.266 40.5971 92.6152 40.1861 91.1987 39.3638C89.7822 38.5415 88.6867 37.3621 87.9124 35.8225C87.1381 34.2829 86.7512 32.4491 86.7512 30.3153V12.9509H94.0767V29.0459Z" fill="#00091D"/>
    <path d="M184.738 23.0375C185.146 24.8802 185.602 26.8611 186.106 28.9859C186.448 30.4234 186.773 31.963 187.085 33.5895C187.361 31.9749 187.649 30.4444 187.952 29.0099C188.399 26.8851 188.834 24.8952 189.258 23.0375V23.0405L191.629 12.9539H199.419L191.31 40.258H183.861L180.833 29.7332C180.539 28.6738 180.248 27.5062 179.954 26.2277C179.66 24.9493 179.375 23.6468 179.099 22.3204C179.033 22.0053 178.964 21.693 178.897 21.3869C178.828 21.693 178.763 22.0022 178.693 22.3204C178.408 23.6468 178.12 24.9523 177.826 26.2397C177.532 27.5272 177.241 28.6918 176.947 29.7332L173.919 40.258H166.47L158.409 12.9539H166.104L168.472 23.0405C168.877 24.8471 169.318 26.813 169.789 28.9378C170.107 30.3723 170.407 31.921 170.69 33.5596C170.993 31.9631 171.311 30.4414 171.647 29.0099C172.151 26.8671 172.625 24.8772 173.063 23.0375L175.554 12.9509H182.295L184.738 23.0375Z" fill="#00091D"/>
    <path d="M242.083 12.5878C242.458 12.5878 242.867 12.6086 243.305 12.6476C243.746 12.6896 244.127 12.7497 244.454 12.8308L244.451 12.8337V19.3793C244.124 19.2653 243.653 19.1751 243.035 19.1091C242.416 19.0431 241.828 19.01 241.276 19.01C240.169 19.01 239.166 19.2503 238.272 19.7304C237.374 20.2106 236.678 20.8769 236.183 21.7322C235.688 22.5875 235.439 23.5838 235.439 24.7242V40.258H228.113V12.9539H235.196V17.7167H235.49C235.994 16.0241 236.837 14.7455 238.017 13.8812C239.196 13.0199 240.553 12.5878 242.083 12.5878Z" fill="#00091D"/>
    <path d="M73.1709 12.6086C75.0586 12.6086 76.7093 13.0199 78.1168 13.8422C79.5273 14.6645 80.6168 15.8439 81.3911 17.3835C82.1624 18.923 82.5493 20.7567 82.5494 22.8904V40.255H75.2236V24.16C75.2236 22.4644 74.7885 21.138 73.9182 20.1777C73.0449 19.2173 71.8355 18.7369 70.2899 18.7369C69.2635 18.7369 68.3451 18.962 67.5408 19.4092C66.7336 19.8564 66.1064 20.5046 65.6592 21.3509C65.2121 22.2002 64.9869 23.2328 64.9869 24.4543V40.255H57.6611V12.9509H64.5728L64.6748 18.6109C65.374 16.8853 66.3164 15.5048 67.5168 14.4785C68.9753 13.233 70.857 12.6086 73.1709 12.6086Z" fill="#00091D"/>
    <path d="M124.658 17.2483C125.439 18.6649 126.144 20.0634 126.771 21.4379C126.945 21.828 127.125 22.2063 127.305 22.5874C127.482 22.2092 127.662 21.8341 127.834 21.4499C128.452 20.0664 129.169 18.6648 129.982 17.2483L132.545 12.9509H140.31L131.885 26.3358L140.702 40.255H132.839L129.811 35.1262C129.013 33.7246 128.293 32.3321 127.65 30.9486C127.476 30.5735 127.299 30.2163 127.125 29.8501C126.957 30.2163 126.789 30.5735 126.624 30.9486C126.012 32.3351 125.316 33.7246 124.535 35.1262L121.507 40.255H113.74L122.521 26.2429L114.277 12.9509H122.191L124.658 17.2483Z" fill="#00091D"/>
    <path d="M140.312 12.9509H140.31L140.312 12.9477V12.9509Z" fill="#00091D"/>
</svg>
