<svg focusable="false" fill="none"  viewBox="0 0 20 20"  xmlns="http://www.w3.org/2000/svg"><g fill="currentColor"><path d="m2.5 4.99999c0-.46024.3731-.83333.83333-.83333h13.33337c.4602 0 .8333.37309.8333.83333s-.3731.83333-.8333.83333h-13.33337c-.46023 0-.83333-.37309-.83333-.83333z"/><path d="m2.5 9.99999c0-.46024.3731-.83333.83333-.83333h13.33337c.4602 0 .8333.37309.8333.83333 0 .46021-.3731.83331-.8333.83331h-13.33337c-.46023 0-.83333-.3731-.83333-.83331z"/><path d="m3.33333 14.1667c-.46023 0-.83333.3731-.83333.8333s.3731.8333.83333.8333h13.33337c.4602 0 .8333-.3731.8333-.8333s-.3731-.8333-.8333-.8333z"/></g></svg>
