<svg focusable="false" fill="none" viewBox="0 0 20 20" xmlns="http://www.w3.org/2000/svg"><path clip-rule="evenodd" d="m13.8482 15.0267c-1.2831 1.0263-2.9106 1.64-4.68145 1.64-4.14214 0-7.5-3.3578-7.5-7.49995 0-4.14214 3.35786-7.5 7.5-7.5 4.14215 0 7.49995 3.35786 7.49995 7.5 0 1.77085-.6137 3.39835-1.64 4.68135l3.0627 3.0627c.3254.3255.3254.8531 0 1.1785-.3255.3255-.8531.3255-1.1786 0zm-10.51479-5.85995c0-3.22166 2.61168-5.83334 5.83334-5.83334 3.22165 0 5.83335 2.61168 5.83335 5.83334 0 1.57165-.6216 2.99815-1.6322 4.04705-.0285.0219-.0559.0459-.0821.072-.0261.0261-.0501.0535-.072.082-1.0489 1.0107-2.4754 1.6323-4.04705 1.6323-3.22166 0-5.83334-2.6117-5.83334-5.83335z" fill="currentColor" fill-rule="evenodd"/></svg>
