<svg focusable="false" fill="none"  viewBox="0 0 20 20"  xmlns="http://www.w3.org/2000/svg"><g clip-rule="evenodd" fill="currentColor" fill-rule="evenodd"><path d="m4.55364 12.887c.7814-.7814 1.84121-1.2203 2.94628-1.2203h4.99998c1.1051 0 2.1649.4389 2.9463 1.2203s1.2204 1.8413 1.2204 2.9463v1.6667c0 .4602-.3731.8333-.8333.8333-.4603 0-.8334-.3731-.8334-.8333v-1.6667c0-.663-.2634-1.2989-.7322-1.7677-.4689-.4689-1.1047-.7323-1.7678-.7323h-4.99998c-.66304 0-1.29893.2634-1.76777.7323-.46884.4688-.73223 1.1047-.73223 1.7677v1.6667c0 .4602-.3731.8333-.83333.8333-.46024 0-.83334-.3731-.83334-.8333v-1.6667c0-1.105.43899-2.1649 1.22039-2.9463z"/><path d="m9.99992 3.33332c-1.38071 0-2.5 1.11929-2.5 2.5s1.11929 2.5 2.5 2.5c1.38068 0 2.49998-1.11929 2.49998-2.5s-1.1193-2.5-2.49998-2.5zm-4.16667 2.5c0-2.30118 1.86548-4.16666 4.16667-4.16666 2.30118 0 4.16668 1.86548 4.16668 4.16666 0 2.30119-1.8655 4.16667-4.16668 4.16667-2.30119 0-4.16667-1.86548-4.16667-4.16667z"/></g></svg>
