<svg focusable="false" fill="none"  viewBox="0 0 20 20"  xmlns="http://www.w3.org/2000/svg"><g clip-rule="evenodd" fill="currentColor" fill-rule="evenodd"><path d="m2.05364 12.887c.7814-.7814 1.84121-1.2203 2.94628-1.2203h5c1.10508 0 2.16488.4389 2.94628 1.2203s1.2204 1.8413 1.2204 2.9463v1.6667c0 .4602-.3731.8333-.8333.8333-.4603 0-.8334-.3731-.8334-.8333v-1.6667c0-.663-.2634-1.2989-.7322-1.7677-.4689-.4689-1.1047-.7323-1.76778-.7323h-5c-.66304 0-1.29893.2634-1.76777.7323-.46884.4688-.73223 1.1047-.73223 1.7677v1.6667c0 .4602-.3731.8333-.83333.8333-.46024 0-.833338-.3731-.833338-.8333v-1.6667c0-1.105.438988-2.1649 1.220388-2.9463z"/><path d="m7.49992 3.33332c-1.38071 0-2.5 1.11929-2.5 2.5s1.11929 2.5 2.5 2.5 2.5-1.11929 2.5-2.5-1.11929-2.5-2.5-2.5zm-4.16667 2.5c0-2.30118 1.86548-4.16666 4.16667-4.16666s4.16668 1.86548 4.16668 4.16666c0 2.30119-1.86549 4.16667-4.16668 4.16667s-4.16667-1.86548-4.16667-4.16667z"/><path d="m18.9226 6.91073c.3254.32544.3254.85308 0 1.17852l-3.3333 3.33335c-.3255.3254-.8531.3254-1.1786 0l-1.6666-1.66669c-.3255-.32543-.3255-.85307 0-1.17851.3254-.32544.8531-.32544 1.1785 0l1.0774 1.07741 2.7441-2.74408c.3254-.32543.8531-.32543 1.1785 0z"/></g></svg>
