<svg focusable="false" fill="none"  viewBox="0 0 20 20"  xmlns="http://www.w3.org/2000/svg"><g clip-rule="evenodd" fill="currentColor" fill-rule="evenodd"><path d="m15.5893 4.41076c.3255.32544.3255.85308 0 1.17852l-9.99996 10.00002c-.32544.3254-.85308.3254-1.17851 0-.32544-.3255-.32544-.8531 0-1.1785l9.99997-10.00004c.3255-.32543.8531-.32543 1.1785 0z"/><path d="m4.41083 4.41076c.32543-.32543.85307-.32543 1.17851 0l9.99996 10.00004c.3255.3254.3255.853 0 1.1785-.3254.3254-.853.3254-1.1785 0l-9.99997-10.00002c-.32544-.32544-.32544-.85308 0-1.17852z"/></g></svg>
